<?xml version="1.0" encoding="UTF-8" standalone="no"?>
<!DOCTYPE svg PUBLIC "-//W3C//DTD SVG 1.1//EN"
 "http://www.w3.org/Graphics/SVG/1.1/DTD/svg11.dtd">
<!-- Generated by graphviz version 2.43.0 (0)
 -->
<!-- Title: ParcelFlowContainers Pages: 1 -->
<svg width="852pt" height="893pt"
 viewBox="0.00 0.00 852.40 892.85" xmlns="http://www.w3.org/2000/svg" xmlns:xlink="http://www.w3.org/1999/xlink">
<g id="graph0" class="graph" transform="scale(1 1) rotate(0) translate(25.2 867.65)">
<title>ParcelFlowContainers</title>
<text text-anchor="middle" x="401" y="-825.65" font-family="Arial" font-size="16.00" fill="#183b36">Runtime Containers</text>
<g id="clust1" class="cluster">
<title>cluster_parcelflow</title>
<path fill="transparent" stroke="#8bcbbf" stroke-width="1.5" d="M20,-8C20,-8 388,-8 388,-8 394,-8 400,-14 400,-20 400,-20 400,-725.45 400,-725.45 400,-731.45 394,-737.45 388,-737.45 388,-737.45 20,-737.45 20,-737.45 14,-737.45 8,-731.45 8,-725.45 8,-725.45 8,-20 8,-20 8,-14 14,-8 20,-8"/>
<text text-anchor="middle" x="204" y="-723.85" font-family="Arial" font-size="12.00" fill="#0b5b4f">Software system: ParcelFlow</text>
</g>
<!-- customer -->
<g id="node1" class="node">
<title>customer</title>
<path fill="#fff8e8" stroke="#b7791f" d="M318.5,-816.45C318.5,-816.45 187.5,-816.45 187.5,-816.45 181.5,-816.45 175.5,-810.45 175.5,-804.45 175.5,-804.45 175.5,-792.45 175.5,-792.45 175.5,-786.45 181.5,-780.45 187.5,-780.45 187.5,-780.45 318.5,-780.45 318.5,-780.45 324.5,-780.45 330.5,-786.45 330.5,-792.45 330.5,-792.45 330.5,-804.45 330.5,-804.45 330.5,-810.45 324.5,-816.45 318.5,-816.45"/>
<text text-anchor="middle" x="253" y="-795.65" font-family="Arial" font-size="11.00" fill="#3f2d00">Person: Customer / Driver</text>
</g>
<!-- web -->
<g id="node4" class="node">
<title>web</title>
<path fill="#eaf7f4" stroke="#167b6a" d="M356,-708.45C356,-708.45 150,-708.45 150,-708.45 144,-708.45 138,-702.45 138,-696.45 138,-696.45 138,-664.45 138,-664.45 138,-658.45 144,-652.45 150,-652.45 150,-652.45 356,-652.45 356,-652.45 362,-652.45 368,-658.45 368,-664.45 368,-664.45 368,-696.45 368,-696.45 368,-702.45 362,-708.45 356,-708.45"/>
<text text-anchor="middle" x="253" y="-689.65" font-family="Arial" font-size="11.00" fill="#093d35">Container: Web application</text>
<text text-anchor="middle" x="253" y="-677.65" font-family="Arial" font-size="11.00" fill="#093d35">[Angular]</text>
<text text-anchor="middle" x="253" y="-665.65" font-family="Arial" font-size="11.00" fill="#093d35">Lets customers create and track deliveries</text>
</g>
<!-- customer&#45;&gt;web -->
<g id="edge1" class="edge">
<title>customer&#45;&gt;web</title>
<path fill="none" stroke="#557a78" stroke-width="1.4" d="M253,-780.33C253,-763.34 253,-736.84 253,-715.54"/>
<polygon fill="#557a78" stroke="#557a78" stroke-width="1.4" points="255.45,-715.54 253,-708.54 250.55,-715.54 255.45,-715.54"/>
<text text-anchor="middle" x="263" y="-748.25" font-family="Arial" font-size="9.00" fill="#45615e">uses</text>
</g>
<!-- carrier -->
<g id="node2" class="node">
<title>carrier</title>
<path fill="#eef5ff" stroke="#2369a6" d="M561.5,-455.95C561.5,-455.95 420.5,-455.95 420.5,-455.95 414.5,-455.95 408.5,-449.95 408.5,-443.95 408.5,-443.95 408.5,-431.95 408.5,-431.95 408.5,-425.95 414.5,-419.95 420.5,-419.95 420.5,-419.95 561.5,-419.95 561.5,-419.95 567.5,-419.95 573.5,-425.95 573.5,-431.95 573.5,-431.95 573.5,-443.95 573.5,-443.95 573.5,-449.95 567.5,-455.95 561.5,-455.95"/>
<text text-anchor="middle" x="491" y="-435.15" font-family="Arial" font-size="11.00" fill="#102e4a">External system: Carrier API</text>
</g>
<!-- payment -->
<g id="node3" class="node">
<title>payment</title>
<path fill="#eef5ff" stroke="#2369a6" d="M790,-455.95C790,-455.95 618,-455.95 618,-455.95 612,-455.95 606,-449.95 606,-443.95 606,-443.95 606,-431.95 606,-431.95 606,-425.95 612,-419.95 618,-419.95 618,-419.95 790,-419.95 790,-419.95 796,-419.95 802,-425.95 802,-431.95 802,-431.95 802,-443.95 802,-443.95 802,-449.95 796,-455.95 790,-455.95"/>
<text text-anchor="middle" x="704" y="-435.15" font-family="Arial" font-size="11.00" fill="#102e4a">External system: Payment provider</text>
</g>
<!-- api -->
<g id="node5" class="node">
<title>api</title>
<path fill="#eaf7f4" stroke="#167b6a" d="M379.5,-592.45C379.5,-592.45 126.5,-592.45 126.5,-592.45 120.5,-592.45 114.5,-586.45 114.5,-580.45 114.5,-580.45 114.5,-548.45 114.5,-548.45 114.5,-542.45 120.5,-536.45 126.5,-536.45 126.5,-536.45 379.5,-536.45 379.5,-536.45 385.5,-536.45 391.5,-542.45 391.5,-548.45 391.5,-548.45 391.5,-580.45 391.5,-580.45 391.5,-586.45 385.5,-592.45 379.5,-592.45"/>
<text text-anchor="middle" x="253" y="-573.65" font-family="Arial" font-size="11.00" fill="#093d35">Container: Delivery API</text>
<text text-anchor="middle" x="253" y="-561.65" font-family="Arial" font-size="11.00" fill="#093d35">[Java / Spring Boot]</text>
<text text-anchor="middle" x="253" y="-549.65" font-family="Arial" font-size="11.00" fill="#093d35">Validates requests and coordinates delivery creation</text>
</g>
<!-- web&#45;&gt;api -->
<g id="edge2" class="edge">
<title>web&#45;&gt;api</title>
<path fill="none" stroke="#557a78" stroke-width="1.4" d="M253,-652.43C253,-636.65 253,-616.57 253,-599.68"/>
<polygon fill="#557a78" stroke="#557a78" stroke-width="1.4" points="255.45,-599.67 253,-592.67 250.55,-599.67 255.45,-599.67"/>
<text text-anchor="middle" x="281" y="-620.25" font-family="Arial" font-size="9.00" fill="#45615e">HTTPS/JSON</text>
</g>
<!-- api&#45;&gt;carrier -->
<g id="edge4" class="edge">
<title>api&#45;&gt;carrier</title>
<path fill="none" stroke="#557a78" stroke-width="1.4" d="M304.64,-536.43C349.02,-513.22 412.04,-480.25 452.23,-459.23"/>
<polygon fill="#557a78" stroke="#557a78" stroke-width="1.4" points="453.41,-461.38 458.47,-455.96 451.13,-457.04 453.41,-461.38"/>
<text text-anchor="middle" x="379" y="-504.25" font-family="Arial" font-size="9.00" fill="#45615e">HTTPS</text>
</g>
<!-- api&#45;&gt;payment -->
<g id="edge5" class="edge">
<title>api&#45;&gt;payment</title>
<path fill="none" stroke="#557a78" stroke-width="1.4" d="M365.45,-536.36C431.2,-520.04 515.64,-498.25 590,-476.45 608.96,-470.89 629.52,-464.3 647.9,-458.21"/>
<polygon fill="#557a78" stroke="#557a78" stroke-width="1.4" points="648.69,-460.53 654.56,-455.99 647.14,-455.88 648.69,-460.53"/>
<text text-anchor="middle" x="512" y="-504.25" font-family="Arial" font-size="9.00" fill="#45615e">HTTPS</text>
</g>
<!-- db -->
<g id="node6" class="node">
<title>db</title>
<path fill="#eef5ff" stroke="#2369a6" d="M375,-469.45C375,-473.31 319.87,-476.45 252,-476.45 184.13,-476.45 129,-473.31 129,-469.45 129,-469.45 129,-406.45 129,-406.45 129,-402.59 184.13,-399.45 252,-399.45 319.87,-399.45 375,-402.59 375,-406.45 375,-406.45 375,-469.45 375,-469.45"/>
<path fill="none" stroke="#2369a6" d="M375,-469.45C375,-465.59 319.87,-462.45 252,-462.45 184.13,-462.45 129,-465.59 129,-469.45"/>
<text text-anchor="middle" x="252" y="-447.15" font-family="Arial" font-size="11.00" fill="#102e4a">Container: Delivery database</text>
<text text-anchor="middle" x="252" y="-435.15" font-family="Arial" font-size="11.00" fill="#102e4a">[PostgreSQL]</text>
<text text-anchor="middle" x="252" y="-423.15" font-family="Arial" font-size="11.00" fill="#102e4a">Stores deliveries and the transactional outbox</text>
</g>
<!-- api&#45;&gt;db -->
<g id="edge3" class="edge">
<title>api&#45;&gt;db</title>
<path fill="none" stroke="#557a78" stroke-width="1.4" d="M252.78,-536.43C252.66,-521.16 252.5,-501.68 252.36,-484.15"/>
<polygon fill="#557a78" stroke="#557a78" stroke-width="1.4" points="254.81,-483.75 252.3,-476.77 249.91,-483.79 254.81,-483.75"/>
<text text-anchor="middle" x="286" y="-504.25" font-family="Arial" font-size="9.00" fill="#45615e">reads and writes</text>
</g>
<!-- relay -->
<g id="node7" class="node">
<title>relay</title>
<path fill="#eaf7f4" stroke="#167b6a" d="M347.5,-339.45C347.5,-339.45 156.5,-339.45 156.5,-339.45 150.5,-339.45 144.5,-333.45 144.5,-327.45 144.5,-327.45 144.5,-295.45 144.5,-295.45 144.5,-289.45 150.5,-283.45 156.5,-283.45 156.5,-283.45 347.5,-283.45 347.5,-283.45 353.5,-283.45 359.5,-289.45 359.5,-295.45 359.5,-295.45 359.5,-327.45 359.5,-327.45 359.5,-333.45 353.5,-339.45 347.5,-339.45"/>
<text text-anchor="middle" x="252" y="-320.65" font-family="Arial" font-size="11.00" fill="#093d35">Container: Outbox relay</text>
<text text-anchor="middle" x="252" y="-308.65" font-family="Arial" font-size="11.00" fill="#093d35">[Java worker]</text>
<text text-anchor="middle" x="252" y="-296.65" font-family="Arial" font-size="11.00" fill="#093d35">Publishes committed integration events</text>
</g>
<!-- db&#45;&gt;relay -->
<g id="edge6" class="edge">
<title>db&#45;&gt;relay</title>
<path fill="none" stroke="#557a78" stroke-width="1.4" d="M252,-399.26C252,-382.62 252,-363.2 252,-346.95"/>
<polygon fill="#557a78" stroke="#557a78" stroke-width="1.4" points="254.45,-346.73 252,-339.73 249.55,-346.73 254.45,-346.73"/>
<text text-anchor="middle" x="282.5" y="-367.25" font-family="Arial" font-size="9.00" fill="#45615e">outbox records</text>
</g>
<!-- broker -->
<g id="node8" class="node">
<title>broker</title>
<path fill="#fff1f3" stroke="#cc071e" d="M382.33,-184.3C382.33,-184.3 332.23,-217.1 332.23,-217.1 327.21,-220.39 316.19,-223.67 310.19,-223.67 310.19,-223.67 193.81,-223.67 193.81,-223.67 187.81,-223.67 176.79,-220.39 171.77,-217.1 171.77,-217.1 121.67,-184.3 121.67,-184.3 116.65,-181.01 116.65,-174.44 121.67,-171.15 121.67,-171.15 171.77,-138.35 171.77,-138.35 176.79,-135.06 187.81,-131.78 193.81,-131.78 193.81,-131.78 310.19,-131.78 310.19,-131.78 316.19,-131.78 327.21,-135.06 332.23,-138.35 332.23,-138.35 382.33,-171.15 382.33,-171.15 387.35,-174.44 387.35,-181.01 382.33,-184.3"/>
<text text-anchor="middle" x="252" y="-186.92" font-family="Arial" font-size="11.00" fill="#7d0012">Container: Event broker</text>
<text text-anchor="middle" x="252" y="-174.92" font-family="Arial" font-size="11.00" fill="#7d0012">[Kafka]</text>
<text text-anchor="middle" x="252" y="-162.92" font-family="Arial" font-size="11.00" fill="#7d0012">Delivers OrderCreated events</text>
</g>
<!-- relay&#45;&gt;broker -->
<g id="edge7" class="edge">
<title>relay&#45;&gt;broker</title>
<path fill="none" stroke="#557a78" stroke-width="1.4" d="M252,-283.15C252,-267.99 252,-248.6 252,-230.67"/>
<polygon fill="#557a78" stroke="#557a78" stroke-width="1.4" points="254.45,-230.61 252,-223.61 249.55,-230.61 254.45,-230.61"/>
<text text-anchor="middle" x="301.5" y="-251.25" font-family="Arial" font-size="9.00" fill="#45615e">publishes OrderCreated</text>
</g>
<!-- billing -->
<g id="node9" class="node">
<title>billing</title>
<path fill="#eaf7f4" stroke="#167b6a" d="M176,-72C176,-72 28,-72 28,-72 22,-72 16,-66 16,-60 16,-60 16,-28 16,-28 16,-22 22,-16 28,-16 28,-16 176,-16 176,-16 182,-16 188,-22 188,-28 188,-28 188,-60 188,-60 188,-66 182,-72 176,-72"/>
<text text-anchor="middle" x="102" y="-53.2" font-family="Arial" font-size="11.00" fill="#093d35">Container: Billing worker</text>
<text text-anchor="middle" x="102" y="-41.2" font-family="Arial" font-size="11.00" fill="#093d35">[Java worker]</text>
<text text-anchor="middle" x="102" y="-29.2" font-family="Arial" font-size="11.00" fill="#093d35">Creates invoices idempotently</text>
</g>
<!-- broker&#45;&gt;billing -->
<g id="edge8" class="edge">
<title>broker&#45;&gt;billing</title>
<path fill="none" stroke="#557a78" stroke-width="1.4" d="M200.8,-131.76C180.34,-113.79 157.24,-93.51 138.53,-77.08"/>
<polygon fill="#557a78" stroke="#557a78" stroke-width="1.4" points="139.75,-74.89 132.87,-72.11 136.51,-78.57 139.75,-74.89"/>
<text text-anchor="middle" x="194.5" y="-99.8" font-family="Arial" font-size="9.00" fill="#45615e">consumes</text>
</g>
<!-- notification -->
<g id="node10" class="node">
<title>notification</title>
<path fill="#eaf7f4" stroke="#167b6a" d="M379.5,-72C379.5,-72 232.5,-72 232.5,-72 226.5,-72 220.5,-66 220.5,-60 220.5,-60 220.5,-28 220.5,-28 220.5,-22 226.5,-16 232.5,-16 232.5,-16 379.5,-16 379.5,-16 385.5,-16 391.5,-22 391.5,-28 391.5,-28 391.5,-60 391.5,-60 391.5,-66 385.5,-72 379.5,-72"/>
<text text-anchor="middle" x="306" y="-53.2" font-family="Arial" font-size="11.00" fill="#093d35">Container: Notification worker</text>
<text text-anchor="middle" x="306" y="-41.2" font-family="Arial" font-size="11.00" fill="#093d35">[Java worker]</text>
<text text-anchor="middle" x="306" y="-29.2" font-family="Arial" font-size="11.00" fill="#093d35">Sends delivery notifications</text>
</g>
<!-- broker&#45;&gt;notification -->
<g id="edge9" class="edge">
<title>broker&#45;&gt;notification</title>
<path fill="none" stroke="#557a78" stroke-width="1.4" d="M270.43,-131.76C277.54,-114.41 285.54,-94.91 292.15,-78.79"/>
<polygon fill="#557a78" stroke="#557a78" stroke-width="1.4" points="294.5,-79.52 294.89,-72.11 289.96,-77.66 294.5,-79.52"/>
<text text-anchor="middle" x="304.5" y="-99.8" font-family="Arial" font-size="9.00" fill="#45615e">consumes</text>
</g>
</g>
</svg>
