<?xml version="1.0" encoding="UTF-8" standalone="no"?>
<!DOCTYPE svg PUBLIC "-//W3C//DTD SVG 1.1//EN"
 "http://www.w3.org/Graphics/SVG/1.1/DTD/svg11.dtd">
<!-- Generated by graphviz version 2.43.0 (0)
 -->
<!-- Title: DataFlow Pages: 1 -->
<svg width="1141pt" height="203pt"
 viewBox="0.00 0.00 1141.05 203.00" xmlns="http://www.w3.org/2000/svg" xmlns:xlink="http://www.w3.org/1999/xlink">
<g id="graph0" class="graph" transform="scale(1 1) rotate(0) translate(18 185)">
<title>DataFlow</title>
<!-- client -->
<g id="node1" class="node">
<title>client</title>
<path fill="#fff8e8" stroke="#b7791f" d="M146,-66C146,-66 12,-66 12,-66 6,-66 0,-60 0,-54 0,-54 0,-34 0,-34 0,-28 6,-22 12,-22 12,-22 146,-22 146,-22 152,-22 158,-28 158,-34 158,-34 158,-54 158,-54 158,-60 152,-66 146,-66"/>
<text text-anchor="middle" x="79" y="-47.4" font-family="Arial" font-size="12.00" fill="#3f2d00">Customer client</text>
<text text-anchor="middle" x="79" y="-34.4" font-family="Arial" font-size="12.00" fill="#3f2d00">identity + delivery details</text>
</g>
<!-- api -->
<g id="node2" class="node">
<title>api</title>
<path fill="#eaf7f4" stroke="#167b6a" d="M378,-66C378,-66 239,-66 239,-66 233,-66 227,-60 227,-54 227,-54 227,-34 227,-34 227,-28 233,-22 239,-22 239,-22 378,-22 378,-22 384,-22 390,-28 390,-34 390,-34 390,-54 390,-54 390,-60 384,-66 378,-66"/>
<text text-anchor="middle" x="308.5" y="-47.4" font-family="Arial" font-size="12.00" fill="#093d35">Order API</text>
<text text-anchor="middle" x="308.5" y="-34.4" font-family="Arial" font-size="12.00" fill="#093d35">authorise + minimise data</text>
</g>
<!-- client&#45;&gt;api -->
<g id="edge1" class="edge">
<title>client&#45;&gt;api</title>
<path fill="none" stroke="#557a78" stroke-width="1.4" d="M158.29,-44C178.07,-44 199.43,-44 219.64,-44"/>
<polygon fill="#557a78" stroke="#557a78" stroke-width="1.4" points="219.74,-46.45 226.74,-44 219.74,-41.55 219.74,-46.45"/>
<text text-anchor="middle" x="192.5" y="-47" font-family="Arial" font-size="10.00"> TLS</text>
</g>
<!-- db -->
<g id="node3" class="node">
<title>db</title>
<path fill="#eef5ff" stroke="#2369a6" d="M624,-68.96C624,-72.02 599.57,-74.5 569.5,-74.5 539.43,-74.5 515,-72.02 515,-68.96 515,-68.96 515,-19.04 515,-19.04 515,-15.98 539.43,-13.5 569.5,-13.5 599.57,-13.5 624,-15.98 624,-19.04 624,-19.04 624,-68.96 624,-68.96"/>
<path fill="none" stroke="#2369a6" d="M624,-68.96C624,-65.9 599.57,-63.41 569.5,-63.41 539.43,-63.41 515,-65.9 515,-68.96"/>
<text text-anchor="middle" x="569.5" y="-47.4" font-family="Arial" font-size="12.00" fill="#102e4a">Order database</text>
<text text-anchor="middle" x="569.5" y="-34.4" font-family="Arial" font-size="12.00" fill="#102e4a">source of truth</text>
</g>
<!-- api&#45;&gt;db -->
<g id="edge2" class="edge">
<title>api&#45;&gt;db</title>
<path fill="none" stroke="#557a78" stroke-width="1.4" d="M390.03,-44C427.88,-44 472.27,-44 507.31,-44"/>
<polygon fill="#557a78" stroke="#557a78" stroke-width="1.4" points="507.64,-46.45 514.64,-44 507.64,-41.55 507.64,-46.45"/>
<text text-anchor="middle" x="452.5" y="-47" font-family="Arial" font-size="10.00"> encrypted at rest</text>
</g>
<!-- broker -->
<g id="node4" class="node">
<title>broker</title>
<path fill="#fff1f3" stroke="#cc071e" d="M942.77,-115.15C942.77,-115.15 903.35,-138.7 903.35,-138.7 898.2,-141.78 887.05,-144.85 881.05,-144.85 881.05,-144.85 785,-144.85 785,-144.85 779,-144.85 767.85,-141.78 762.7,-138.7 762.7,-138.7 723.28,-115.15 723.28,-115.15 718.13,-112.08 718.13,-105.92 723.28,-102.85 723.28,-102.85 762.7,-79.3 762.7,-79.3 767.85,-76.22 779,-73.15 785,-73.15 785,-73.15 881.05,-73.15 881.05,-73.15 887.05,-73.15 898.2,-76.22 903.35,-79.3 903.35,-79.3 942.77,-102.85 942.77,-102.85 947.92,-105.92 947.92,-112.08 942.77,-115.15"/>
<text text-anchor="middle" x="833.02" y="-112.4" font-family="Arial" font-size="12.00" fill="#7d0012">Event broker</text>
<text text-anchor="middle" x="833.02" y="-99.4" font-family="Arial" font-size="12.00" fill="#7d0012">minimal event payload</text>
</g>
<!-- db&#45;&gt;broker -->
<g id="edge3" class="edge">
<title>db&#45;&gt;broker</title>
<path fill="none" stroke="#557a78" stroke-width="1.4" d="M624.05,-57.31C657.61,-65.65 701.73,-76.62 740.69,-86.3"/>
<polygon fill="#557a78" stroke="#557a78" stroke-width="1.4" points="740.52,-88.78 747.9,-88.09 741.7,-84.03 740.52,-88.78"/>
<text text-anchor="middle" x="668.5" y="-76" font-family="Arial" font-size="10.00"> outbox</text>
</g>
<!-- archive -->
<g id="node7" class="node">
<title>archive</title>
<path fill="#f0edfb" stroke="#6846a5" d="M884.02,-44C884.02,-44 782.02,-44 782.02,-44 776.02,-44 770.02,-38 770.02,-32 770.02,-32 770.02,-12 770.02,-12 770.02,-6 776.02,0 782.02,0 782.02,0 884.02,0 884.02,0 890.02,0 896.02,-6 896.02,-12 896.02,-12 896.02,-32 896.02,-32 896.02,-38 890.02,-44 884.02,-44"/>
<text text-anchor="middle" x="833.02" y="-25.4" font-family="Arial" font-size="12.00" fill="#342055">Retention / archive</text>
<text text-anchor="middle" x="833.02" y="-12.4" font-family="Arial" font-size="12.00" fill="#342055">policy controlled</text>
</g>
<!-- db&#45;&gt;archive -->
<g id="edge6" class="edge">
<title>db&#45;&gt;archive</title>
<path fill="none" stroke="#557a78" stroke-width="1.4" d="M624.05,-39.49C664.12,-36.12 719.24,-31.49 762.67,-27.83"/>
<polygon fill="#557a78" stroke="#557a78" stroke-width="1.4" points="763.04,-30.26 769.81,-27.23 762.63,-25.38 763.04,-30.26"/>
<text text-anchor="middle" x="668.5" y="-40" font-family="Arial" font-size="10.00"> retention</text>
</g>
<!-- billing -->
<g id="node5" class="node">
<title>billing</title>
<path fill="#eaf7f4" stroke="#167b6a" d="M1090.55,-167C1090.55,-167 1016.55,-167 1016.55,-167 1010.55,-167 1004.55,-161 1004.55,-155 1004.55,-155 1004.55,-135 1004.55,-135 1004.55,-129 1010.55,-123 1016.55,-123 1016.55,-123 1090.55,-123 1090.55,-123 1096.55,-123 1102.55,-129 1102.55,-135 1102.55,-135 1102.55,-155 1102.55,-155 1102.55,-161 1096.55,-167 1090.55,-167"/>
<text text-anchor="middle" x="1053.55" y="-148.4" font-family="Arial" font-size="12.00" fill="#093d35">Billing</text>
<text text-anchor="middle" x="1053.55" y="-135.4" font-family="Arial" font-size="12.00" fill="#093d35">financial data</text>
</g>
<!-- broker&#45;&gt;billing -->
<g id="edge4" class="edge">
<title>broker&#45;&gt;billing</title>
<path fill="none" stroke="#557a78" stroke-width="1.4" d="M927.65,-124.42C951.38,-128.33 976.11,-132.41 997.25,-135.89"/>
<polygon fill="#557a78" stroke="#557a78" stroke-width="1.4" points="996.97,-138.33 1004.27,-137.05 997.77,-133.49 996.97,-138.33"/>
</g>
<!-- notify -->
<g id="node6" class="node">
<title>notify</title>
<path fill="#eaf7f4" stroke="#167b6a" d="M1093.05,-94C1093.05,-94 1014.05,-94 1014.05,-94 1008.05,-94 1002.05,-88 1002.05,-82 1002.05,-82 1002.05,-62 1002.05,-62 1002.05,-56 1008.05,-50 1014.05,-50 1014.05,-50 1093.05,-50 1093.05,-50 1099.05,-50 1105.05,-56 1105.05,-62 1105.05,-62 1105.05,-82 1105.05,-82 1105.05,-88 1099.05,-94 1093.05,-94"/>
<text text-anchor="middle" x="1053.55" y="-75.4" font-family="Arial" font-size="12.00" fill="#093d35">Notification</text>
<text text-anchor="middle" x="1053.55" y="-62.4" font-family="Arial" font-size="12.00" fill="#093d35">contact details</text>
</g>
<!-- broker&#45;&gt;notify -->
<g id="edge5" class="edge">
<title>broker&#45;&gt;notify</title>
<path fill="none" stroke="#557a78" stroke-width="1.4" d="M927.02,-93.26C950.08,-89.35 974.14,-85.28 994.94,-81.75"/>
<polygon fill="#557a78" stroke="#557a78" stroke-width="1.4" points="995.38,-84.17 1001.87,-80.58 994.56,-79.33 995.38,-84.17"/>
</g>
</g>
</svg>
