<?xml version="1.0" encoding="UTF-8" standalone="no"?>
<!DOCTYPE svg PUBLIC "-//W3C//DTD SVG 1.1//EN"
 "http://www.w3.org/Graphics/SVG/1.1/DTD/svg11.dtd">
<!-- Generated by graphviz version 2.43.0 (0)
 -->
<!-- Title: Deployment Pages: 1 -->
<svg width="536pt" height="413pt"
 viewBox="0.00 0.00 535.50 412.50" xmlns="http://www.w3.org/2000/svg" xmlns:xlink="http://www.w3.org/1999/xlink">
<g id="graph0" class="graph" transform="scale(1 1) rotate(0) translate(18 394.5)">
<title>Deployment</title>
<g id="clust1" class="cluster">
<title>cluster</title>
<path fill="transparent" stroke="#c9e4df" d="M45.5,-95.5C45.5,-95.5 479.5,-95.5 479.5,-95.5 485.5,-95.5 491.5,-101.5 491.5,-107.5 491.5,-107.5 491.5,-158.5 491.5,-158.5 491.5,-164.5 485.5,-170.5 479.5,-170.5 479.5,-170.5 45.5,-170.5 45.5,-170.5 39.5,-170.5 33.5,-164.5 33.5,-158.5 33.5,-158.5 33.5,-107.5 33.5,-107.5 33.5,-101.5 39.5,-95.5 45.5,-95.5"/>
<text text-anchor="middle" x="262.5" y="-155.3" font-family="Times,serif" font-size="14.00">Kubernetes cluster / primary region</text>
</g>
<!-- internet -->
<g id="node1" class="node">
<title>internet</title>
<path fill="#eaf7f4" stroke="#167b6a" d="M116.5,-376.5C116.5,-376.5 74.5,-376.5 74.5,-376.5 68.5,-376.5 62.5,-370.5 62.5,-364.5 62.5,-364.5 62.5,-352.5 62.5,-352.5 62.5,-346.5 68.5,-340.5 74.5,-340.5 74.5,-340.5 116.5,-340.5 116.5,-340.5 122.5,-340.5 128.5,-346.5 128.5,-352.5 128.5,-352.5 128.5,-364.5 128.5,-364.5 128.5,-370.5 122.5,-376.5 116.5,-376.5"/>
<text text-anchor="middle" x="95.5" y="-355.4" font-family="Arial" font-size="12.00" fill="#093d35">Internet</text>
</g>
<!-- cdn -->
<g id="node2" class="node">
<title>cdn</title>
<path fill="#eef5ff" stroke="#2369a6" d="M172,-297.5C172,-297.5 19,-297.5 19,-297.5 13,-297.5 7,-291.5 7,-285.5 7,-285.5 7,-273.5 7,-273.5 7,-267.5 13,-261.5 19,-261.5 19,-261.5 172,-261.5 172,-261.5 178,-261.5 184,-267.5 184,-273.5 184,-273.5 184,-285.5 184,-285.5 184,-291.5 178,-297.5 172,-297.5"/>
<text text-anchor="middle" x="95.5" y="-276.4" font-family="Arial" font-size="12.00" fill="#102e4a">CDN / WAF / Load Balancer</text>
</g>
<!-- internet&#45;&gt;cdn -->
<g id="edge1" class="edge">
<title>internet&#45;&gt;cdn</title>
<path fill="none" stroke="#557a78" stroke-width="1.4" d="M95.5,-340.41C95.5,-329.94 95.5,-316.38 95.5,-304.81"/>
<polygon fill="#557a78" stroke="#557a78" stroke-width="1.4" points="97.95,-304.54 95.5,-297.54 93.05,-304.54 97.95,-304.54"/>
</g>
<!-- ingress -->
<g id="node3" class="node">
<title>ingress</title>
<path fill="#eaf7f4" stroke="#167b6a" d="M155.5,-218.5C155.5,-218.5 35.5,-218.5 35.5,-218.5 29.5,-218.5 23.5,-212.5 23.5,-206.5 23.5,-206.5 23.5,-194.5 23.5,-194.5 23.5,-188.5 29.5,-182.5 35.5,-182.5 35.5,-182.5 155.5,-182.5 155.5,-182.5 161.5,-182.5 167.5,-188.5 167.5,-194.5 167.5,-194.5 167.5,-206.5 167.5,-206.5 167.5,-212.5 161.5,-218.5 155.5,-218.5"/>
<text text-anchor="middle" x="95.5" y="-197.4" font-family="Arial" font-size="12.00" fill="#093d35">API Gateway / Ingress</text>
</g>
<!-- cdn&#45;&gt;ingress -->
<g id="edge2" class="edge">
<title>cdn&#45;&gt;ingress</title>
<path fill="none" stroke="#557a78" stroke-width="1.4" d="M95.5,-261.41C95.5,-250.94 95.5,-237.38 95.5,-225.81"/>
<polygon fill="#557a78" stroke="#557a78" stroke-width="1.4" points="97.95,-225.54 95.5,-218.54 93.05,-225.54 97.95,-225.54"/>
</g>
<!-- order -->
<g id="node4" class="node">
<title>order</title>
<path fill="#eaf7f4" stroke="#167b6a" d="M137.5,-139.5C137.5,-139.5 53.5,-139.5 53.5,-139.5 47.5,-139.5 41.5,-133.5 41.5,-127.5 41.5,-127.5 41.5,-115.5 41.5,-115.5 41.5,-109.5 47.5,-103.5 53.5,-103.5 53.5,-103.5 137.5,-103.5 137.5,-103.5 143.5,-103.5 149.5,-109.5 149.5,-115.5 149.5,-115.5 149.5,-127.5 149.5,-127.5 149.5,-133.5 143.5,-139.5 137.5,-139.5"/>
<text text-anchor="middle" x="95.5" y="-118.4" font-family="Arial" font-size="12.00" fill="#093d35">Order API pods</text>
</g>
<!-- ingress&#45;&gt;order -->
<g id="edge3" class="edge">
<title>ingress&#45;&gt;order</title>
<path fill="none" stroke="#557a78" stroke-width="1.4" d="M95.5,-182.41C95.5,-171.94 95.5,-158.38 95.5,-146.81"/>
<polygon fill="#557a78" stroke="#557a78" stroke-width="1.4" points="97.95,-146.54 95.5,-139.54 93.05,-146.54 97.95,-146.54"/>
</g>
<!-- data -->
<g id="node7" class="node">
<title>data</title>
<path fill="#eef5ff" stroke="#2369a6" d="M145,-55.21C145,-58.27 112.5,-60.75 72.5,-60.75 32.5,-60.75 0,-58.27 0,-55.21 0,-55.21 0,-5.29 0,-5.29 0,-2.23 32.5,0.25 72.5,0.25 112.5,0.25 145,-2.23 145,-5.29 145,-5.29 145,-55.21 145,-55.21"/>
<path fill="none" stroke="#2369a6" d="M145,-55.21C145,-52.15 112.5,-49.66 72.5,-49.66 32.5,-49.66 0,-52.15 0,-55.21"/>
<text text-anchor="middle" x="72.5" y="-33.65" font-family="Arial" font-size="12.00" fill="#102e4a">Managed PostgreSQL</text>
<text text-anchor="middle" x="72.5" y="-20.65" font-family="Arial" font-size="12.00" fill="#102e4a">backup + replica</text>
</g>
<!-- order&#45;&gt;data -->
<g id="edge4" class="edge">
<title>order&#45;&gt;data</title>
<path fill="none" stroke="#557a78" stroke-width="1.4" d="M91.07,-103.29C88.47,-93.21 85.09,-80.09 81.92,-67.81"/>
<polygon fill="#557a78" stroke="#557a78" stroke-width="1.4" points="84.21,-66.87 80.09,-60.71 79.47,-68.1 84.21,-66.87"/>
</g>
<!-- observability -->
<g id="node9" class="node">
<title>observability</title>
<path fill="#f0edfb" stroke="#6846a5" d="M296,-48.25C296,-48.25 189,-48.25 189,-48.25 183,-48.25 177,-42.25 177,-36.25 177,-36.25 177,-24.25 177,-24.25 177,-18.25 183,-12.25 189,-12.25 189,-12.25 296,-12.25 296,-12.25 302,-12.25 308,-18.25 308,-24.25 308,-24.25 308,-36.25 308,-36.25 308,-42.25 302,-48.25 296,-48.25"/>
<text text-anchor="middle" x="242.5" y="-27.15" font-family="Arial" font-size="12.00" fill="#342055">Telemetry + alerting</text>
</g>
<!-- order&#45;&gt;observability -->
<g id="edge8" class="edge">
<title>order&#45;&gt;observability</title>
<path fill="none" stroke="#557a78" stroke-width="1.4" stroke-dasharray="5,2" d="M123.84,-103.29C147.94,-88.66 182.61,-67.61 208.26,-52.04"/>
<polygon fill="#557a78" stroke="#557a78" stroke-width="1.4" points="209.53,-54.13 214.24,-48.41 206.99,-49.94 209.53,-54.13"/>
</g>
<!-- relay -->
<g id="node5" class="node">
<title>relay</title>
<path fill="#eaf7f4" stroke="#167b6a" d="M263.5,-139.5C263.5,-139.5 193.5,-139.5 193.5,-139.5 187.5,-139.5 181.5,-133.5 181.5,-127.5 181.5,-127.5 181.5,-115.5 181.5,-115.5 181.5,-109.5 187.5,-103.5 193.5,-103.5 193.5,-103.5 263.5,-103.5 263.5,-103.5 269.5,-103.5 275.5,-109.5 275.5,-115.5 275.5,-115.5 275.5,-127.5 275.5,-127.5 275.5,-133.5 269.5,-139.5 263.5,-139.5"/>
<text text-anchor="middle" x="228.5" y="-118.4" font-family="Arial" font-size="12.00" fill="#093d35">Outbox relay</text>
</g>
<!-- broker -->
<g id="node8" class="node">
<title>broker</title>
<path fill="#fff1f3" stroke="#cc071e" d="M486.67,-36.73C486.67,-36.73 467.73,-48.89 467.73,-48.89 462.68,-52.13 451.63,-55.37 445.63,-55.37 445.63,-55.37 391.37,-55.37 391.37,-55.37 385.37,-55.37 374.32,-52.13 369.27,-48.89 369.27,-48.89 350.33,-36.73 350.33,-36.73 345.28,-33.49 345.28,-27.01 350.33,-23.77 350.33,-23.77 369.27,-11.61 369.27,-11.61 374.32,-8.37 385.37,-5.13 391.37,-5.13 391.37,-5.13 445.63,-5.13 445.63,-5.13 451.63,-5.13 462.68,-8.37 467.73,-11.61 467.73,-11.61 486.67,-23.77 486.67,-23.77 491.72,-27.01 491.72,-33.49 486.67,-36.73"/>
<text text-anchor="middle" x="418.5" y="-27.15" font-family="Arial" font-size="12.00" fill="#7d0012">Kafka cluster</text>
</g>
<!-- relay&#45;&gt;broker -->
<g id="edge6" class="edge">
<title>relay&#45;&gt;broker</title>
<path fill="none" stroke="#557a78" stroke-width="1.4" d="M265.13,-103.29C294.25,-89.62 335.31,-70.33 367.61,-55.15"/>
<polygon fill="#557a78" stroke="#557a78" stroke-width="1.4" points="368.66,-57.37 373.95,-52.18 366.58,-52.93 368.66,-57.37"/>
</g>
<!-- workers -->
<g id="node6" class="node">
<title>workers</title>
<path fill="#eaf7f4" stroke="#167b6a" d="M471.5,-139.5C471.5,-139.5 319.5,-139.5 319.5,-139.5 313.5,-139.5 307.5,-133.5 307.5,-127.5 307.5,-127.5 307.5,-115.5 307.5,-115.5 307.5,-109.5 313.5,-103.5 319.5,-103.5 319.5,-103.5 471.5,-103.5 471.5,-103.5 477.5,-103.5 483.5,-109.5 483.5,-115.5 483.5,-115.5 483.5,-127.5 483.5,-127.5 483.5,-133.5 477.5,-139.5 471.5,-139.5"/>
<text text-anchor="middle" x="395.5" y="-118.4" font-family="Arial" font-size="12.00" fill="#093d35">Billing + notification workers</text>
</g>
<!-- workers&#45;&gt;observability -->
<g id="edge9" class="edge">
<title>workers&#45;&gt;observability</title>
<path fill="none" stroke="#557a78" stroke-width="1.4" stroke-dasharray="5,2" d="M366,-103.29C340.84,-88.61 304.6,-67.47 277.88,-51.89"/>
<polygon fill="#557a78" stroke="#557a78" stroke-width="1.4" points="278.93,-49.66 271.65,-48.25 276.46,-53.9 278.93,-49.66"/>
</g>
<!-- data&#45;&gt;relay -->
<g id="edge5" class="edge">
<title>data&#45;&gt;relay</title>
<path fill="none" stroke="#557a78" stroke-width="1.4" d="M122.74,-60C145.35,-72.93 171.54,-87.91 192.2,-99.73"/>
<polygon fill="#557a78" stroke="#557a78" stroke-width="1.4" points="191.13,-101.94 198.42,-103.29 193.56,-97.69 191.13,-101.94"/>
</g>
<!-- broker&#45;&gt;workers -->
<g id="edge7" class="edge">
<title>broker&#45;&gt;workers</title>
<path fill="none" stroke="#557a78" stroke-width="1.4" d="M412.25,-55.49C409,-68.13 405.02,-83.56 401.76,-96.21"/>
<polygon fill="#557a78" stroke="#557a78" stroke-width="1.4" points="399.31,-95.9 399.93,-103.29 404.05,-97.12 399.31,-95.9"/>
</g>
</g>
</svg>
