<?xml version="1.0" encoding="UTF-8" standalone="no"?>
<!DOCTYPE svg PUBLIC "-//W3C//DTD SVG 1.1//EN"
 "http://www.w3.org/Graphics/SVG/1.1/DTD/svg11.dtd">
<!-- Generated by graphviz version 2.43.0 (0)
 -->
<!-- Title: EventRecovery Pages: 1 -->
<svg width="749pt" height="215pt"
 viewBox="0.00 0.00 749.00 215.00" xmlns="http://www.w3.org/2000/svg" xmlns:xlink="http://www.w3.org/1999/xlink">
<g id="graph0" class="graph" transform="scale(1 1) rotate(0) translate(18 197)">
<title>EventRecovery</title>
<!-- committed -->
<g id="node1" class="node">
<title>committed</title>
<path fill="#eaf7f4" stroke="#167b6a" d="M106,-109C106,-109 12,-109 12,-109 6,-109 0,-103 0,-97 0,-97 0,-81 0,-81 0,-75 6,-69 12,-69 12,-69 106,-69 106,-69 112,-69 118,-75 118,-81 118,-81 118,-97 118,-97 118,-103 112,-109 106,-109"/>
<text text-anchor="middle" x="59" y="-92.4" font-family="Arial" font-size="12.00" fill="#093d35">Delivery + outbox</text>
<text text-anchor="middle" x="59" y="-79.4" font-family="Arial" font-size="12.00" fill="#093d35">committed</text>
</g>
<!-- published -->
<g id="node2" class="node">
<title>published</title>
<path fill="#eaf7f4" stroke="#167b6a" d="M262,-107C262,-107 175,-107 175,-107 169,-107 163,-101 163,-95 163,-95 163,-83 163,-83 163,-77 169,-71 175,-71 175,-71 262,-71 262,-71 268,-71 274,-77 274,-83 274,-83 274,-95 274,-95 274,-101 268,-107 262,-107"/>
<text text-anchor="middle" x="218.5" y="-85.9" font-family="Arial" font-size="12.00" fill="#093d35">Event published</text>
</g>
<!-- committed&#45;&gt;published -->
<g id="edge1" class="edge">
<title>committed&#45;&gt;published</title>
<path fill="none" stroke="#557a78" stroke-width="1.5" d="M118.2,-89C130.43,-89 143.38,-89 155.74,-89"/>
<polygon fill="#557a78" stroke="#557a78" stroke-width="1.5" points="155.93,-91.45 162.93,-89 155.93,-86.55 155.93,-91.45"/>
</g>
<!-- processing -->
<g id="node3" class="node">
<title>processing</title>
<path fill="#eaf7f4" stroke="#167b6a" d="M449,-107C449,-107 331,-107 331,-107 325,-107 319,-101 319,-95 319,-95 319,-83 319,-83 319,-77 325,-71 331,-71 331,-71 449,-71 449,-71 455,-71 461,-77 461,-83 461,-83 461,-95 461,-95 461,-101 455,-107 449,-107"/>
<text text-anchor="middle" x="390" y="-85.9" font-family="Arial" font-size="12.00" fill="#093d35">Consumer processing</text>
</g>
<!-- published&#45;&gt;processing -->
<g id="edge2" class="edge">
<title>published&#45;&gt;processing</title>
<path fill="none" stroke="#557a78" stroke-width="1.5" d="M274.06,-89C286.07,-89 299,-89 311.71,-89"/>
<polygon fill="#557a78" stroke="#557a78" stroke-width="1.5" points="311.74,-91.45 318.74,-89 311.74,-86.55 311.74,-91.45"/>
</g>
<!-- completed -->
<g id="node4" class="node">
<title>completed</title>
<path fill="#eaf7f4" stroke="#167b6a" d="M689,-179C689,-179 607,-179 607,-179 601,-179 595,-173 595,-167 595,-167 595,-151 595,-151 595,-145 601,-139 607,-139 607,-139 689,-139 689,-139 695,-139 701,-145 701,-151 701,-151 701,-167 701,-167 701,-173 695,-179 689,-179"/>
<text text-anchor="middle" x="648" y="-162.4" font-family="Arial" font-size="12.00" fill="#093d35">Business effect</text>
<text text-anchor="middle" x="648" y="-149.4" font-family="Arial" font-size="12.00" fill="#093d35">completed</text>
</g>
<!-- processing&#45;&gt;completed -->
<g id="edge3" class="edge">
<title>processing&#45;&gt;completed</title>
<path fill="none" stroke="#557a78" stroke-width="1.5" d="M444.3,-107.14C456.93,-111.23 470.4,-115.41 483,-119 517.46,-128.81 556.41,-138.37 587.7,-145.68"/>
<polygon fill="#557a78" stroke="#557a78" stroke-width="1.5" points="587.29,-148.1 594.66,-147.3 588.4,-143.33 587.29,-148.1"/>
</g>
<!-- retry -->
<g id="node5" class="node">
<title>retry</title>
<path fill="#fff8e8" stroke="#b7791f" d="M681.5,-111C681.5,-111 614.5,-111 614.5,-111 608.5,-111 602.5,-105 602.5,-99 602.5,-99 602.5,-87 602.5,-87 602.5,-81 608.5,-75 614.5,-75 614.5,-75 681.5,-75 681.5,-75 687.5,-75 693.5,-81 693.5,-87 693.5,-87 693.5,-99 693.5,-99 693.5,-105 687.5,-111 681.5,-111"/>
<text text-anchor="middle" x="648" y="-89.9" font-family="Arial" font-size="12.00" fill="#3f2d00">Backoff retry</text>
</g>
<!-- processing&#45;&gt;retry -->
<g id="edge4" class="edge">
<title>processing&#45;&gt;retry</title>
<path fill="none" stroke="#557a78" stroke-width="1.5" d="M461.23,-99.11C468.57,-99.88 475.93,-100.54 483,-101 517.59,-103.25 526.37,-102.61 561,-101 572.06,-100.49 583.89,-99.6 595.13,-98.61"/>
<polygon fill="#557a78" stroke="#557a78" stroke-width="1.5" points="595.67,-101.02 602.42,-97.94 595.22,-96.14 595.67,-101.02"/>
<text text-anchor="middle" x="522" y="-105" font-family="Arial" font-size="10.00"> transient failure</text>
</g>
<!-- dlq -->
<g id="node6" class="node">
<title>dlq</title>
<path fill="#fff1f3" stroke="#cc071e" d="M701,-36C701,-36 595,-36 595,-36 589,-36 583,-30 583,-24 583,-24 583,-12 583,-12 583,-6 589,0 595,0 595,0 701,0 701,0 707,0 713,-6 713,-12 713,-12 713,-24 713,-24 713,-30 707,-36 701,-36"/>
<text text-anchor="middle" x="648" y="-14.9" font-family="Arial" font-size="12.00" fill="#7d0012">DLQ + investigation</text>
</g>
<!-- processing&#45;&gt;dlq -->
<g id="edge6" class="edge">
<title>processing&#45;&gt;dlq</title>
<path fill="none" stroke="#557a78" stroke-width="1.5" d="M455.93,-70.99C492.47,-60.86 538.14,-48.19 575.67,-37.78"/>
<polygon fill="#557a78" stroke="#557a78" stroke-width="1.5" points="576.49,-40.1 582.58,-35.87 575.18,-35.38 576.49,-40.1"/>
<text text-anchor="middle" x="522" y="-64" font-family="Arial" font-size="10.00"> repeated / invalid</text>
</g>
<!-- retry&#45;&gt;processing -->
<g id="edge5" class="edge">
<title>retry&#45;&gt;processing</title>
<path fill="none" stroke="#557a78" stroke-width="1.5" d="M602.39,-89.91C589.08,-89.12 574.45,-88.39 561,-88 530.81,-87.12 497.59,-87.11 468.59,-87.4"/>
<polygon fill="#557a78" stroke="#557a78" stroke-width="1.5" points="468.29,-84.96 461.32,-87.49 468.34,-89.86 468.29,-84.96"/>
<text text-anchor="middle" x="522" y="-91" font-family="Arial" font-size="10.00"> redelivery</text>
</g>
<!-- dlq&#45;&gt;processing -->
<g id="edge7" class="edge">
<title>dlq&#45;&gt;processing</title>
<path fill="none" stroke="#557a78" stroke-width="1.5" d="M582.79,-12.53C551.88,-11.95 514.73,-14.3 483,-25 457.66,-33.55 433,-51.37 415.61,-66.04"/>
<polygon fill="#557a78" stroke="#557a78" stroke-width="1.5" points="413.7,-64.45 410,-70.88 416.9,-68.16 413.7,-64.45"/>
<text text-anchor="middle" x="522" y="-28" font-family="Arial" font-size="10.00"> corrected replay</text>
</g>
</g>
</svg>
