<?xml version="1.0" encoding="UTF-8" standalone="no"?>
<!DOCTYPE svg PUBLIC "-//W3C//DTD SVG 1.1//EN"
 "http://www.w3.org/Graphics/SVG/1.1/DTD/svg11.dtd">
<!-- Generated by graphviz version 2.43.0 (0)
 -->
<!-- Title: LogicalArchitecture Pages: 1 -->
<svg width="458pt" height="354pt"
 viewBox="0.00 0.00 457.50 354.00" xmlns="http://www.w3.org/2000/svg" xmlns:xlink="http://www.w3.org/1999/xlink">
<g id="graph0" class="graph" transform="scale(1 1) rotate(0) translate(18 336)">
<title>LogicalArchitecture</title>
<!-- channels -->
<g id="node1" class="node">
<title>channels</title>
<path fill="#eef5ff" stroke="#2369a6" d="M153,-318C153,-318 12,-318 12,-318 6,-318 0,-312 0,-306 0,-306 0,-286 0,-286 0,-280 6,-274 12,-274 12,-274 153,-274 153,-274 159,-274 165,-280 165,-286 165,-286 165,-306 165,-306 165,-312 159,-318 153,-318"/>
<text text-anchor="middle" x="82.5" y="-299.4" font-family="Arial" font-size="12.00" fill="#102e4a">Channels</text>
<text text-anchor="middle" x="82.5" y="-286.4" font-family="Arial" font-size="12.00" fill="#102e4a">web · mobile · partner API</text>
</g>
<!-- application -->
<g id="node2" class="node">
<title>application</title>
<path fill="#eaf7f4" stroke="#167b6a" d="M244.5,-231C244.5,-231 58.5,-231 58.5,-231 52.5,-231 46.5,-225 46.5,-219 46.5,-219 46.5,-199 46.5,-199 46.5,-193 52.5,-187 58.5,-187 58.5,-187 244.5,-187 244.5,-187 250.5,-187 256.5,-193 256.5,-199 256.5,-199 256.5,-219 256.5,-219 256.5,-225 250.5,-231 244.5,-231"/>
<text text-anchor="middle" x="151.5" y="-212.4" font-family="Arial" font-size="12.00" fill="#093d35">Application</text>
<text text-anchor="middle" x="151.5" y="-199.4" font-family="Arial" font-size="12.00" fill="#093d35">use cases · policies · orchestration</text>
</g>
<!-- channels&#45;&gt;application -->
<g id="edge1" class="edge">
<title>channels&#45;&gt;application</title>
<path fill="none" stroke="#557a78" stroke-width="1.4" d="M99.56,-273.99C108.68,-262.75 120.01,-248.79 129.76,-236.78"/>
<polygon fill="#557a78" stroke="#557a78" stroke-width="1.4" points="131.89,-238.04 134.4,-231.06 128.09,-234.95 131.89,-238.04"/>
</g>
<!-- domain -->
<g id="node3" class="node">
<title>domain</title>
<path fill="#fff8e8" stroke="#b7791f" d="M248.5,-144C248.5,-144 54.5,-144 54.5,-144 48.5,-144 42.5,-138 42.5,-132 42.5,-132 42.5,-99 42.5,-99 42.5,-93 48.5,-87 54.5,-87 54.5,-87 248.5,-87 248.5,-87 254.5,-87 260.5,-93 260.5,-99 260.5,-99 260.5,-132 260.5,-132 260.5,-138 254.5,-144 248.5,-144"/>
<text text-anchor="middle" x="151.5" y="-125.4" font-family="Arial" font-size="12.00" fill="#3f2d00">Domain</text>
<text text-anchor="middle" x="151.5" y="-112.4" font-family="Arial" font-size="12.00" fill="#3f2d00">delivery request · shipment · invoice</text>
<text text-anchor="middle" x="151.5" y="-99.4" font-family="Arial" font-size="12.00" fill="#3f2d00">events · invariants</text>
</g>
<!-- application&#45;&gt;domain -->
<g id="edge2" class="edge">
<title>application&#45;&gt;domain</title>
<path fill="none" stroke="#557a78" stroke-width="1.4" d="M151.5,-186.78C151.5,-176.29 151.5,-163.35 151.5,-151.45"/>
<polygon fill="#557a78" stroke="#557a78" stroke-width="1.4" points="153.95,-151.2 151.5,-144.2 149.05,-151.2 153.95,-151.2"/>
</g>
<!-- adapters -->
<g id="node4" class="node">
<title>adapters</title>
<path fill="#eaf7f4" stroke="#167b6a" d="M362.5,-44C362.5,-44 98.5,-44 98.5,-44 92.5,-44 86.5,-38 86.5,-32 86.5,-32 86.5,-12 86.5,-12 86.5,-6 92.5,0 98.5,0 98.5,0 362.5,0 362.5,0 368.5,0 374.5,-6 374.5,-12 374.5,-12 374.5,-32 374.5,-32 374.5,-38 368.5,-44 362.5,-44"/>
<text text-anchor="middle" x="230.5" y="-25.4" font-family="Arial" font-size="12.00" fill="#093d35">Adapters</text>
<text text-anchor="middle" x="230.5" y="-12.4" font-family="Arial" font-size="12.00" fill="#093d35">REST · messaging · persistence · external clients</text>
</g>
<!-- domain&#45;&gt;adapters -->
<g id="edge3" class="edge">
<title>domain&#45;&gt;adapters</title>
<path fill="none" stroke="#557a78" stroke-width="1.4" d="M175.63,-86.55C185.77,-74.81 197.51,-61.21 207.52,-49.61"/>
<polygon fill="#557a78" stroke="#557a78" stroke-width="1.4" points="209.56,-51 212.28,-44.1 205.85,-47.8 209.56,-51"/>
</g>
<!-- platform -->
<g id="node5" class="node">
<title>platform</title>
<path fill="#f0edfb" stroke="#6846a5" d="M409.5,-318C409.5,-318 209.5,-318 209.5,-318 203.5,-318 197.5,-312 197.5,-306 197.5,-306 197.5,-286 197.5,-286 197.5,-280 203.5,-274 209.5,-274 209.5,-274 409.5,-274 409.5,-274 415.5,-274 421.5,-280 421.5,-286 421.5,-286 421.5,-306 421.5,-306 421.5,-312 415.5,-318 409.5,-318"/>
<text text-anchor="middle" x="309.5" y="-299.4" font-family="Arial" font-size="12.00" fill="#342055">Cross&#45;cutting platform</text>
<text text-anchor="middle" x="309.5" y="-286.4" font-family="Arial" font-size="12.00" fill="#342055">security · observability · configuration</text>
</g>
<!-- platform&#45;&gt;application -->
<g id="edge4" class="edge">
<title>platform&#45;&gt;application</title>
<path fill="none" stroke="#557a78" stroke-width="1.4" stroke-dasharray="5,2" d="M270.44,-273.99C248.22,-262.04 220.29,-247 197.07,-234.51"/>
<polygon fill="#557a78" stroke="#557a78" stroke-width="1.4" points="197.98,-232.22 190.65,-231.06 195.66,-236.54 197.98,-232.22"/>
</g>
<!-- platform&#45;&gt;adapters -->
<g id="edge5" class="edge">
<title>platform&#45;&gt;adapters</title>
<path fill="none" stroke="#557a78" stroke-width="1.4" stroke-dasharray="5,2" d="M309.33,-273.77C308.33,-235.14 303,-151.41 276.5,-87 271.1,-73.87 262.52,-60.86 254.22,-50.04"/>
<polygon fill="#557a78" stroke="#557a78" stroke-width="1.4" points="255.92,-48.25 249.66,-44.27 252.08,-51.28 255.92,-48.25"/>
</g>
</g>
</svg>
