<?xml version="1.0" encoding="UTF-8" standalone="no"?>
<!DOCTYPE svg PUBLIC "-//W3C//DTD SVG 1.1//EN"
 "http://www.w3.org/Graphics/SVG/1.1/DTD/svg11.dtd">
<!-- Generated by graphviz version 2.43.0 (0)
 -->
<!-- Title: ParcelFlowSystemContext Pages: 1 -->
<svg width="1094pt" height="212pt"
 viewBox="0.00 0.00 1094.40 212.40" xmlns="http://www.w3.org/2000/svg" xmlns:xlink="http://www.w3.org/1999/xlink">
<g id="graph0" class="graph" transform="scale(1 1) rotate(0) translate(25.2 187.2)">
<title>ParcelFlowSystemContext</title>
<text text-anchor="middle" x="522" y="-145.2" font-family="Arial" font-size="16.00" fill="#183b36">System Context</text>
<!-- customer -->
<g id="node1" class="node">
<title>customer</title>
<path fill="#fff8e8" stroke="#b7791f" d="M175,-136C175,-136 12,-136 12,-136 6,-136 0,-130 0,-124 0,-124 0,-100 0,-100 0,-94 6,-88 12,-88 12,-88 175,-88 175,-88 181,-88 187,-94 187,-100 187,-100 187,-124 187,-124 187,-130 181,-136 175,-136"/>
<text text-anchor="middle" x="93.5" y="-115.4" font-family="Arial" font-size="12.00" fill="#3f2d00">Person: Customer / Driver</text>
<text text-anchor="middle" x="93.5" y="-102.4" font-family="Arial" font-size="12.00" fill="#3f2d00">Creates and tracks deliveries</text>
</g>
<!-- parcelFlow -->
<g id="node3" class="node">
<title>parcelFlow</title>
<path fill="#d8f0eb" stroke="#167b6a" stroke-width="2.2" d="M624,-92C624,-92 379,-92 379,-92 373,-92 367,-86 367,-80 367,-80 367,-56 367,-56 367,-50 373,-44 379,-44 379,-44 624,-44 624,-44 630,-44 636,-50 636,-56 636,-56 636,-80 636,-80 636,-86 630,-92 624,-92"/>
<text text-anchor="middle" x="501.5" y="-71.4" font-family="Arial" font-size="12.00" fill="#093d35">Software system: ParcelFlow</text>
<text text-anchor="middle" x="501.5" y="-58.4" font-family="Arial" font-size="12.00" fill="#093d35">Creates deliveries and coordinates fulfilment</text>
</g>
<!-- customer&#45;&gt;parcelFlow -->
<g id="edge1" class="edge">
<title>customer&#45;&gt;parcelFlow</title>
<path fill="none" stroke="#557a78" stroke-width="1.5" d="M187.14,-101.96C238.08,-96.44 302.36,-89.47 359.41,-83.29"/>
<polygon fill="#557a78" stroke="#557a78" stroke-width="1.5" points="360,-85.69 366.69,-82.5 359.47,-80.82 360,-85.69"/>
<text text-anchor="middle" x="277" y="-99.8" font-family="Arial" font-size="9.00" fill="#45615e">creates and tracks deliveries</text>
</g>
<!-- support -->
<g id="node2" class="node">
<title>support</title>
<path fill="#fff8e8" stroke="#b7791f" d="M164,-48C164,-48 23,-48 23,-48 17,-48 11,-42 11,-36 11,-36 11,-12 11,-12 11,-6 17,0 23,0 23,0 164,0 164,0 170,0 176,-6 176,-12 176,-12 176,-36 176,-36 176,-42 170,-48 164,-48"/>
<text text-anchor="middle" x="93.5" y="-27.4" font-family="Arial" font-size="12.00" fill="#3f2d00">Person: Support agent</text>
<text text-anchor="middle" x="93.5" y="-14.4" font-family="Arial" font-size="12.00" fill="#3f2d00">Resolves delivery issues</text>
</g>
<!-- support&#45;&gt;parcelFlow -->
<g id="edge2" class="edge">
<title>support&#45;&gt;parcelFlow</title>
<path fill="none" stroke="#557a78" stroke-width="1.5" d="M176.17,-32.85C228.68,-38.54 298.3,-46.09 359.57,-52.73"/>
<polygon fill="#557a78" stroke="#557a78" stroke-width="1.5" points="359.39,-55.17 366.61,-53.49 359.92,-50.3 359.39,-55.17"/>
<text text-anchor="middle" x="277" y="-51.8" font-family="Arial" font-size="9.00" fill="#45615e">investigates customer issues</text>
</g>
<!-- carrier -->
<g id="node4" class="node">
<title>carrier</title>
<path fill="#eef5ff" stroke="#2369a6" d="M1032,-136C1032,-136 838,-136 838,-136 832,-136 826,-130 826,-124 826,-124 826,-100 826,-100 826,-94 832,-88 838,-88 838,-88 1032,-88 1032,-88 1038,-88 1044,-94 1044,-100 1044,-100 1044,-124 1044,-124 1044,-130 1038,-136 1032,-136"/>
<text text-anchor="middle" x="935" y="-115.4" font-family="Arial" font-size="12.00" fill="#102e4a">External system: Carrier API</text>
<text text-anchor="middle" x="935" y="-102.4" font-family="Arial" font-size="12.00" fill="#102e4a">Provides labels and delivery status</text>
</g>
<!-- parcelFlow&#45;&gt;carrier -->
<g id="edge3" class="edge">
<title>parcelFlow&#45;&gt;carrier</title>
<path fill="none" stroke="#557a78" stroke-width="1.5" d="M636.07,-81.62C694.58,-87.59 762.57,-94.52 818.82,-100.25"/>
<polygon fill="#557a78" stroke="#557a78" stroke-width="1.5" points="818.75,-102.71 825.97,-100.98 819.25,-97.84 818.75,-102.71"/>
<text text-anchor="middle" x="731" y="-99.8" font-family="Arial" font-size="9.00" fill="#45615e">requests labels; receives status</text>
</g>
<!-- payment -->
<g id="node5" class="node">
<title>payment</title>
<path fill="#eef5ff" stroke="#2369a6" d="M1031.5,-48C1031.5,-48 838.5,-48 838.5,-48 832.5,-48 826.5,-42 826.5,-36 826.5,-36 826.5,-12 826.5,-12 826.5,-6 832.5,0 838.5,0 838.5,0 1031.5,0 1031.5,0 1037.5,0 1043.5,-6 1043.5,-12 1043.5,-12 1043.5,-36 1043.5,-36 1043.5,-42 1037.5,-48 1031.5,-48"/>
<text text-anchor="middle" x="935" y="-27.4" font-family="Arial" font-size="12.00" fill="#102e4a">External system: Payment provider</text>
<text text-anchor="middle" x="935" y="-14.4" font-family="Arial" font-size="12.00" fill="#102e4a">Authorises customer payments</text>
</g>
<!-- parcelFlow&#45;&gt;payment -->
<g id="edge4" class="edge">
<title>parcelFlow&#45;&gt;payment</title>
<path fill="none" stroke="#557a78" stroke-width="1.5" d="M636.07,-54.38C694.7,-48.4 762.85,-41.45 819.16,-35.71"/>
<polygon fill="#557a78" stroke="#557a78" stroke-width="1.5" points="819.6,-38.13 826.32,-34.98 819.11,-33.25 819.6,-38.13"/>
<text text-anchor="middle" x="731" y="-51.8" font-family="Arial" font-size="9.00" fill="#45615e">authorises payment</text>
</g>
</g>
</svg>
